<?xml version="1.0" encoding="iso-8859-1"?>
<!-- Generator: Adobe Illustrator 18.1.1, SVG Export Plug-In . SVG Version: 6.00 Build 0)  -->
<svg version="1.1" id="Capa_1" xmlns="http://www.w3.org/2000/svg" xmlns:xlink="http://www.w3.org/1999/xlink" x="0px" y="0px"
	 viewBox="0 0 460.795 460.795" style="enable-background:new 0 0 460.795 460.795;" xml:space="preserve">
<g>
	<g id="Layer_1_53_">
		<g>
			<path d="M458.444,91.329c-3.095-5.45-8.909-8.986-15.172-9.237c-5.762-0.232-10.281,2.678-15.075,5.401
				c-14.529,8.615-30.603,15.175-46.999,18.983c-67.719,15.728-124.052-0.91-166.37-29.147
				c-13.706-9.146-24.538-22.028-34.441-35.094c-3.319-4.379-7.397-7.633-12.994-8.449c-6.446-0.94-13.064,1.722-17.063,6.867
				c-3.853,4.956-4.89,11.749-2.681,17.626c0.826,2.198,2.15,4.078,3.45,6.007c2.146,3.185,4.36,6.301,6.599,9.42
				c10.074,14.036,22.421,26.505,35.834,37.338c16.017,12.935,34.61,23.128,54.244,29.358c-4.13,12.726-9.812,24.912-16.303,36.622
				c-6.66,12.014-21.41,27.597-21.41,27.597s-24.578-2.458-74.217-19.961c-0.177-0.829-0.397-1.48-0.567-1.963
				c-0.223-0.633-0.63-0.938-0.933-1.081c-0.369-0.175-17.762-7.418-25.399-12.36c-2.837-1.84-21.557-13.307-24.099-16.188
				c-4.453-5.048-18.835-7.93-24.904-8.947l-8.038-4.425l3.738-6.79c1.038-1.886,0.351-4.258-1.535-5.296
				c-1.885-1.037-4.258-0.352-5.295,1.535L1.598,214.916c-3.432,6.232-1.151,14.093,5.08,17.523
				c4.489,2.472,9.826,1.978,13.74-0.822c4.789,1.254,10.766,0.471,16.276-5.228c2.87-2.968,7.252-7.407,12.151-11.675
				c0,0,22.024-18.396,52.744,4.502l12.299,9.326c0.492,0.258,1.798-1.205,3.366-3.34c28.049,14.997,53.542,25.115,85.136,29.332
				c1.938,0.259,8.006,1.002,8.006,1.002s13.75,24.25,20.213,38.662c5.979,13.333,10.625,27.332,13.647,41.645
				c-1.345,0.908-2.152,1.792-2.68,2.382c-0.446,0.5-0.518,1.004-0.497,1.339c0.024,0.407,2.067,19.137,1.42,28.211
				c-0.242,3.372-1.261,25.302-2.56,28.918c-2.274,6.336,2.137,20.324,4.172,26.133v9.175h-7.752c-2.152,0-3.898,1.746-3.898,3.898
				s1.746,3.898,3.898,3.898h97.908c7.114,0,12.901-5.788,12.901-12.9c0-5.126-3.006-9.563-7.347-11.642
				c-1.21-4.8-4.778-9.657-12.429-11.737c-3.984-1.083-9.986-2.781-16.087-5.015c0,0-26.736-10.424-21.491-48.377l2.238-15.272
				c-0.01-0.503-1.573-0.907-3.812-1.235c-0.374-21.421-3.411-45.372-12.696-65.206c-0.221-0.473-0.392-0.967-0.59-1.449
				c0.312-0.313,0.622-0.627,0.932-0.942c0.621-0.631,1.237-1.266,1.85-1.905c1.333-1.392,2.646-2.802,3.94-4.229
				c2.513-2.773,4.951-5.612,7.316-8.512c4.824-5.915,9.34-12.08,13.55-18.445c8.775-13.268,16.223-27.399,22.401-42.053
				c3.313-7.855,6.263-15.863,8.86-23.981c1.168-3.653,3.598-13.13,3.598-13.13s8.424-0.235,10.676-0.404
				c17.802-1.333,35.331-5.26,52.142-11.224c15.808-5.608,30.905-13.084,45.168-21.893c4.701-2.903,10.013-5.712,12.896-10.624
				C461.563,104.036,461.647,96.965,458.444,91.329z M11.821,226.124c-0.474-0.103-0.939-0.271-1.384-0.517
				c-2.465-1.355-3.367-4.467-2.01-6.932l15.737-28.589l5.751,3.166L11.821,226.124z M301.635,425.436h37.522
				c0.139,0.464,0.216,0.953,0.216,1.461c0,2.813-2.29,5.104-5.104,5.104h-32.634V425.436z"/>
			<path d="M283.596,98.387c4.676,3.15,9.973,5.326,15.498,6.405l0.059,0.012c13.693,2.66,28.103-1.752,37.979-11.604
				c10.02-10.002,14.417-24.786,11.501-38.64c-2.845-13.494-12.388-25.045-25.124-30.344c-13.034-5.422-28.23-3.92-39.938,3.969
				c-11.708,7.889-18.8,21.41-18.671,35.532C265.033,77.514,272.163,90.69,283.596,98.387z"/>
		</g>
	</g>
</g>
<g>
</g>
<g>
</g>
<g>
</g>
<g>
</g>
<g>
</g>
<g>
</g>
<g>
</g>
<g>
</g>
<g>
</g>
<g>
</g>
<g>
</g>
<g>
</g>
<g>
</g>
<g>
</g>
<g>
</g>
</svg>
